<mxfile host="app.diagrams.net" modified="2024-01-06T22:26:06.554Z" agent="Mozilla/5.0 (Windows NT 10.0; Win64; x64) AppleWebKit/537.36 (KHTML, like Gecko) Chrome/120.0.0.0 Safari/537.36" etag="H6j3jlwlDpoQ6ysRC8ca" version="22.1.17" type="device">
  <diagram id="7M0nMT9oFGDoVXCGNaex" name="Page-2">
    <mxGraphModel dx="793" dy="374" grid="0" gridSize="10" guides="1" tooltips="1" connect="1" arrows="1" fold="1" page="1" pageScale="1" pageWidth="850" pageHeight="1100" math="0" shadow="0">
      <root>
        <mxCell id="0" />
        <mxCell id="1" parent="0" />
        <mxCell id="q7x-NV0MaLdOag8TCNa1-12" style="edgeStyle=orthogonalEdgeStyle;rounded=0;orthogonalLoop=1;jettySize=auto;html=1;entryX=0;entryY=0.5;entryDx=0;entryDy=0;curved=1;" edge="1" parent="1" source="IiXCDqzUpQA1iLtLdOec-1" target="q7x-NV0MaLdOag8TCNa1-4">
          <mxGeometry relative="1" as="geometry" />
        </mxCell>
        <mxCell id="IiXCDqzUpQA1iLtLdOec-1" value="CO&lt;sub&gt;2&amp;nbsp;&lt;/sub&gt;content produced by a sugar mill (normally) :&amp;nbsp;" style="rounded=1;whiteSpace=wrap;html=1;fillColor=#dae8fc;strokeColor=#6c8ebf;" parent="1" vertex="1">
          <mxGeometry x="330" y="140" width="190" height="80" as="geometry" />
        </mxCell>
        <mxCell id="q7x-NV0MaLdOag8TCNa1-4" value="0.45 - 0.63 Kg of CO&lt;sub&gt;2&lt;/sub&gt;e per Kg of Sugar" style="rounded=1;whiteSpace=wrap;html=1;fillColor=#fff2cc;strokeColor=#d6b656;" vertex="1" parent="1">
          <mxGeometry x="570" y="140" width="190" height="80" as="geometry" />
        </mxCell>
        <mxCell id="q7x-NV0MaLdOag8TCNa1-13" style="edgeStyle=orthogonalEdgeStyle;rounded=0;orthogonalLoop=1;jettySize=auto;html=1;" edge="1" parent="1" source="q7x-NV0MaLdOag8TCNa1-5" target="q7x-NV0MaLdOag8TCNa1-6">
          <mxGeometry relative="1" as="geometry" />
        </mxCell>
        <mxCell id="q7x-NV0MaLdOag8TCNa1-5" value="Single Day sugar production&amp;nbsp;" style="rounded=1;whiteSpace=wrap;html=1;fillColor=#dae8fc;strokeColor=#6c8ebf;" vertex="1" parent="1">
          <mxGeometry x="330" y="230" width="190" height="80" as="geometry" />
        </mxCell>
        <mxCell id="q7x-NV0MaLdOag8TCNa1-6" value="100-300 Ton" style="rounded=1;whiteSpace=wrap;html=1;fillColor=#fff2cc;strokeColor=#d6b656;" vertex="1" parent="1">
          <mxGeometry x="570" y="230" width="190" height="80" as="geometry" />
        </mxCell>
        <mxCell id="q7x-NV0MaLdOag8TCNa1-14" style="edgeStyle=orthogonalEdgeStyle;rounded=0;orthogonalLoop=1;jettySize=auto;html=1;" edge="1" parent="1" source="q7x-NV0MaLdOag8TCNa1-7" target="q7x-NV0MaLdOag8TCNa1-8">
          <mxGeometry relative="1" as="geometry" />
        </mxCell>
        <mxCell id="q7x-NV0MaLdOag8TCNa1-7" value="Total CO&lt;sub style=&quot;border-color: var(--border-color);&quot;&gt;2&lt;/sub&gt;&lt;span style=&quot;border-color: var(--border-color);&quot;&gt;&amp;nbsp;Capture&lt;/span&gt;&lt;sub style=&quot;border-color: var(--border-color);&quot;&gt;&amp;nbsp;&amp;nbsp;&lt;/sub&gt;" style="rounded=1;whiteSpace=wrap;html=1;fillColor=#dae8fc;strokeColor=#6c8ebf;" vertex="1" parent="1">
          <mxGeometry x="330" y="320" width="190" height="80" as="geometry" />
        </mxCell>
        <mxCell id="q7x-NV0MaLdOag8TCNa1-8" value="100*0.5=1,36,050 Kg of CO&lt;sub style=&quot;border-color: var(--border-color);&quot;&gt;2&amp;nbsp;&lt;/sub&gt;" style="rounded=1;whiteSpace=wrap;html=1;fillColor=#fff2cc;strokeColor=#d6b656;" vertex="1" parent="1">
          <mxGeometry x="570" y="320" width="190" height="80" as="geometry" />
        </mxCell>
        <mxCell id="q7x-NV0MaLdOag8TCNa1-15" style="edgeStyle=orthogonalEdgeStyle;rounded=0;orthogonalLoop=1;jettySize=auto;html=1;" edge="1" parent="1" source="q7x-NV0MaLdOag8TCNa1-9" target="q7x-NV0MaLdOag8TCNa1-10">
          <mxGeometry relative="1" as="geometry" />
        </mxCell>
        <mxCell id="q7x-NV0MaLdOag8TCNa1-9" value="Final Product &lt;br&gt;(Assuming Efficienfy = 80%)" style="rounded=1;whiteSpace=wrap;html=1;fillColor=#dae8fc;strokeColor=#6c8ebf;" vertex="1" parent="1">
          <mxGeometry x="330" y="410" width="190" height="80" as="geometry" />
        </mxCell>
        <mxCell id="q7x-NV0MaLdOag8TCNa1-10" value="&lt;sub style=&quot;border-color: var(--border-color);&quot;&gt;&lt;font style=&quot;font-size: 12px;&quot;&gt;1,08,840 Kg of&amp;nbsp;CO&lt;sub style=&quot;border-color: var(--border-color);&quot;&gt;2&amp;nbsp;&lt;/sub&gt;&lt;br&gt;&amp;nbsp;&lt;/font&gt;&lt;/sub&gt;" style="rounded=1;whiteSpace=wrap;html=1;fillColor=#fff2cc;strokeColor=#d6b656;" vertex="1" parent="1">
          <mxGeometry x="570" y="410" width="190" height="80" as="geometry" />
        </mxCell>
      </root>
    </mxGraphModel>
  </diagram>
</mxfile>
